<svg xmlns="http://www.w3.org/2000/svg" viewBox="0 0 32 32" fill="none">
  <rect width="32" height="32" rx="6" fill="#070b14"/>
  <path d="M6 8h6c3 0 5 1.5 5 4 0 1.8-1 3-2.5 3.5 2 .5 3.5 2 3.5 4.2 0 3-2.2 4.8-5.5 4.8H6V8zm6 6c1.5 0 2.5-.8 2.5-2.2S13.5 9.5 12 9.5H8.5V14H12zm.5 7.5c1.8 0 3-1 3-2.5s-1.2-2.5-3-2.5H8.5v5H12.5z" fill="#00d4aa"/>
  <path d="M22 9.5V8h-6v1.5h2v15H22v-15z" fill="#00d4aa" opacity="0.8"/>
  <path d="M24 8l3 4-3 4" stroke="#00d4aa" stroke-width="1.5" stroke-linecap="round" stroke-linejoin="round" opacity="0.6"/>
</svg>
